<svg width="590" height="159" viewBox="0 0 590 159" fill="none" xmlns="http://www.w3.org/2000/svg">
<path d="M317.733 25.9669C317.591 25.9669 317.449 25.8219 317.591 25.677L318.586 24.2279C318.728 24.083 318.87 23.938 319.154 23.938H337.061C337.203 23.938 337.345 24.083 337.203 24.2279L336.35 25.5321C336.208 25.677 336.066 25.8219 335.782 25.8219L317.733 25.9669ZM310.201 30.6041C310.059 30.6041 309.917 30.4591 310.059 30.3145L311.054 28.8651C311.196 28.7202 311.338 28.5752 311.622 28.5752H334.503C334.645 28.5752 334.787 28.7202 334.787 28.8651L334.361 30.3145C334.361 30.4591 334.076 30.6041 333.934 30.6041H310.201ZM322.281 35.3863C322.139 35.3863 321.997 35.2413 322.139 35.0967L322.849 33.7923C322.991 33.6473 323.133 33.5024 323.418 33.5024H333.366C333.508 33.5024 333.65 33.6473 333.65 33.7923L333.508 34.9517C333.508 35.0967 333.366 35.2413 333.224 35.2413L322.281 35.3863ZM374.295 24.9524L365.91 27.1262C365.199 27.2712 365.057 27.4162 364.489 26.5465C363.778 25.677 363.21 25.0974 362.073 24.6626C358.946 23.0685 355.82 23.5033 352.978 25.3872C349.567 27.5608 347.861 30.894 347.861 35.0967C347.861 39.154 350.704 42.4873 354.683 43.0668C358.094 43.5017 360.936 42.3423 363.21 39.7339C363.636 39.154 364.062 38.5745 364.631 37.85H354.967C353.972 37.85 353.688 37.1252 353.972 36.2557C354.683 34.6618 355.82 32.0534 356.53 30.749C356.673 30.4591 357.099 29.8796 357.81 29.8796H376C375.858 31.3285 375.858 32.6329 375.716 34.0823C375.147 37.7051 373.869 41.1829 371.595 44.0812C368.042 48.8634 363.352 51.9067 357.383 52.7762C352.409 53.5007 347.861 52.4862 343.882 49.4433C340.187 46.545 338.055 42.7772 337.487 38.1396C336.776 32.6329 338.482 27.5608 341.75 23.2135C345.303 18.4312 349.993 15.388 355.82 14.3736C360.51 13.5041 365.057 14.0838 369.037 16.8372C371.737 18.5762 373.584 21.0397 374.863 24.083C375.005 24.6626 374.863 24.8075 374.295 24.9524Z" fill="#00ACD7"/>
<path d="M390.436 53C385.994 52.8575 381.969 51.5751 378.498 48.5833C375.583 46.019 373.779 42.7425 373.224 38.8959C372.391 33.1972 373.918 28.2108 377.249 23.7944C380.858 18.9505 385.161 16.5286 390.991 15.3889C395.988 14.5341 400.707 14.9615 404.872 17.9533C408.758 20.6601 411.118 24.3643 411.812 29.2081C412.644 36.0466 410.701 41.4602 406.259 46.1615C403.067 49.5806 399.042 51.5751 394.6 52.5724C393.073 52.8575 391.685 52.8575 390.436 53ZM402.095 32.7697C402.095 32.0574 402.095 31.6299 401.957 31.0602C401.124 26.0739 396.682 23.2245 391.963 24.3643C387.382 25.3615 384.467 28.3534 383.356 33.0547C382.524 36.9013 384.328 40.8905 387.799 42.6C390.436 43.7398 393.212 43.5973 395.71 42.3149C399.735 40.3204 401.818 37.0439 402.095 32.7697Z" fill="#00ACD7"/>
<path d="M13.0398 47.7276L15.5327 32.8182H93.8672L91.3743 47.7276H61.0281L47.2212 131H29.5792L43.386 47.7276H13.0398ZM113.535 132.438C106.28 132.438 100.239 130.84 95.4133 127.644C90.6192 124.448 87.2474 119.958 85.2979 114.173C83.3483 108.388 82.9967 101.676 84.2432 94.038C85.4896 86.4954 87.9825 79.8956 91.7219 74.2386C95.4932 68.5817 100.239 64.2031 105.96 61.103C111.713 57.9709 118.153 56.4048 125.28 56.4048C132.535 56.4048 138.56 58.0188 143.354 61.2468C148.148 64.4428 151.519 68.9332 153.469 74.718C155.451 80.5028 155.818 87.2464 154.572 94.9489C153.357 102.46 150.848 109.027 147.045 114.652C143.274 120.277 138.528 124.656 132.807 127.788C127.086 130.888 120.662 132.438 113.535 132.438ZM114.973 118.536C119 118.536 122.532 117.449 125.568 115.276C128.636 113.07 131.145 110.114 133.094 106.407C135.076 102.667 136.45 98.5124 137.217 93.9421C137.92 89.5316 137.936 85.5366 137.265 81.957C136.594 78.3455 135.156 75.4851 132.951 73.3757C130.777 71.2344 127.757 70.1637 123.89 70.1637C119.863 70.1637 116.299 71.2823 113.199 73.5195C110.131 75.7248 107.622 78.6971 105.672 82.4364C103.723 86.1438 102.381 90.2827 101.646 94.853C100.91 99.2635 100.878 103.259 101.55 106.838C102.221 110.418 103.659 113.262 105.864 115.371C108.07 117.481 111.106 118.536 114.973 118.536ZM197.874 131H164.124L180.423 32.8182H213.886C223.634 32.8182 231.72 34.8317 238.144 38.8587C244.568 42.8856 249.074 48.6385 251.663 56.1172C254.284 63.5639 254.731 72.4489 253.005 82.772C251.343 92.8714 248.067 101.517 243.177 108.708C238.287 115.899 232.007 121.412 224.337 125.247C216.666 129.082 207.845 131 197.874 131ZM184.45 115.611H198.785C205.592 115.611 211.521 114.317 216.57 111.728C221.652 109.107 225.791 105.224 228.987 100.078C232.215 94.9009 234.452 88.4769 235.699 80.8065C236.945 73.4556 236.865 67.3832 235.459 62.5891C234.053 57.7631 231.32 54.1676 227.261 51.8026C223.234 49.4055 217.897 48.207 211.249 48.207H195.621L184.45 115.611ZM293.491 132.438C286.236 132.438 280.195 130.84 275.369 127.644C270.575 124.448 267.203 119.958 265.254 114.173C263.304 108.388 262.953 101.676 264.199 94.038C265.446 86.4954 267.939 79.8956 271.678 74.2386C275.449 68.5817 280.195 64.2031 285.916 61.103C291.669 57.9709 298.109 56.4048 305.236 56.4048C312.491 56.4048 318.516 58.0188 323.31 61.2468C328.104 64.4428 331.476 68.9332 333.425 74.718C335.407 80.5028 335.774 87.2464 334.528 94.9489C333.313 102.46 330.804 109.027 327.001 114.652C323.23 120.277 318.484 124.656 312.763 127.788C307.042 130.888 300.618 132.438 293.491 132.438ZM294.929 118.536C298.956 118.536 302.488 117.449 305.524 115.276C308.592 113.07 311.101 110.114 313.05 106.407C315.032 102.667 316.406 98.5124 317.173 93.9421C317.876 89.5316 317.892 85.5366 317.221 81.957C316.55 78.3455 315.112 75.4851 312.907 73.3757C310.733 71.2344 307.713 70.1637 303.846 70.1637C299.819 70.1637 296.255 71.2823 293.155 73.5195C290.087 75.7248 287.578 78.6971 285.629 82.4364C283.679 86.1438 282.337 90.2827 281.602 94.853C280.866 99.2635 280.835 103.259 281.506 106.838C282.177 110.418 283.615 113.262 285.82 115.371C288.026 117.481 291.062 118.536 294.929 118.536ZM394.082 82.9638V97.25H349.881V82.9638H394.082ZM435.059 132.582C430.808 132.582 426.909 131.735 423.361 130.041C419.846 128.347 417.017 125.87 414.876 122.61C412.766 119.35 411.712 115.387 411.712 110.721C411.712 107.653 412.255 104.952 413.342 102.619C414.428 100.286 416.106 98.2727 418.375 96.5788C420.645 94.8849 423.553 93.4947 427.1 92.408C430.648 91.2894 434.883 90.4265 439.805 89.8192C443.544 89.3718 446.884 88.9403 449.824 88.5249C452.765 88.0774 455.066 87.3903 456.728 86.4634C458.422 85.5366 459.268 84.1303 459.268 82.2447V79.1765C459.268 73.8072 457.575 69.5405 454.187 66.3764C450.799 63.2124 446.133 61.6303 440.188 61.6303C434.915 61.6303 430.472 62.7969 426.861 65.13C423.281 67.4311 420.772 70.4034 419.334 74.0469L413.821 71.9854C415.227 68.4698 417.257 65.5455 419.909 63.2124C422.594 60.8793 425.662 59.1374 429.114 57.9869C432.598 56.8363 436.241 56.261 440.044 56.261C443.336 56.261 446.468 56.7244 449.441 57.6513C452.445 58.5781 455.114 59.9844 457.447 61.87C459.812 63.7557 461.681 66.1687 463.056 69.109C464.43 72.0174 465.117 75.5011 465.117 79.56V131H459.268V117.721H458.837C457.559 120.469 455.801 122.978 453.564 125.247C451.358 127.484 448.69 129.274 445.558 130.616C442.457 131.927 438.958 132.582 435.059 132.582ZM435.634 127.165C440.236 127.165 444.311 126.046 447.859 123.809C451.438 121.54 454.235 118.44 456.248 114.509C458.262 110.577 459.268 106.119 459.268 101.133V90.2986C458.533 90.9379 457.463 91.5131 456.056 92.0245C454.682 92.5039 453.116 92.9354 451.358 93.3189C449.632 93.6705 447.811 93.9901 445.893 94.2777C444.007 94.5334 442.17 94.7731 440.38 94.9968C435.011 95.636 430.632 96.6268 427.244 97.9691C423.888 99.2795 421.428 101.005 419.862 103.147C418.327 105.288 417.56 107.877 417.56 110.913C417.56 115.931 419.286 119.894 422.738 122.802C426.19 125.711 430.488 127.165 435.634 127.165ZM489.639 158.614V57.3636H495.344V73.8072H496.063C497.213 70.6431 498.827 67.7347 500.905 65.082C503.014 62.4293 505.619 60.304 508.719 58.706C511.851 57.076 515.526 56.261 519.745 56.261C525.69 56.261 530.867 57.891 535.278 61.1509C539.688 64.4109 543.108 68.9173 545.537 74.6701C547.966 80.391 549.181 86.9588 549.181 94.3736C549.181 101.788 547.95 108.372 545.489 114.125C543.06 119.846 539.64 124.352 535.23 127.644C530.851 130.904 525.722 132.534 519.841 132.534C515.654 132.534 511.979 131.735 508.815 130.137C505.683 128.539 503.046 126.414 500.905 123.761C498.795 121.076 497.181 118.136 496.063 114.94H495.487V158.614H489.639ZM495.392 94.3256C495.392 100.59 496.35 106.199 498.268 111.153C500.186 116.075 502.934 119.974 506.514 122.85C510.093 125.695 514.36 127.117 519.314 127.117C524.331 127.117 528.63 125.679 532.21 122.802C535.821 119.894 538.57 115.963 540.455 111.009C542.373 106.055 543.332 100.494 543.332 94.3256C543.332 88.1573 542.389 82.6122 540.503 77.6903C538.618 72.7685 535.885 68.8853 532.306 66.0408C528.726 63.1644 524.395 61.7262 519.314 61.7262C514.296 61.7262 509.997 63.1484 506.418 65.9929C502.87 68.8054 500.138 72.6726 498.22 77.5945C496.334 82.4844 495.392 88.0614 495.392 94.3256ZM569.687 131V57.3636H575.488V131H569.687ZM572.611 44.3239C571.333 44.3239 570.214 43.8764 569.256 42.9815C568.329 42.0866 567.865 41 567.865 39.7216C567.865 38.4432 568.329 37.3565 569.256 36.4616C570.182 35.5668 571.301 35.1193 572.611 35.1193C573.89 35.1193 574.992 35.5668 575.919 36.4616C576.878 37.3565 577.358 38.4432 577.358 39.7216C577.358 41 576.894 42.0866 575.967 42.9815C575.04 43.8764 573.922 44.3239 572.611 44.3239Z" fill="#00ACD7"/>
</svg>
